<svg xmlns="http://www.w3.org/2000/svg" width="560" height="200" viewBox="0 0 560 200"><defs><linearGradient id="g1" x1="0" y1="0" x2="1" y2="1"><stop offset="0%" stop-color="#22d3ee"/><stop offset="50%" stop-color="#60a5fa"/><stop offset="100%" stop-color="#3b82f6"/></linearGradient><filter id="shadow"><feDropShadow dx="0" dy="14" stdDeviation="14" flood-color="rgba(0,0,0,0.45)"/></filter></defs><rect x="8" y="8" rx="20" ry="20" width="544" height="184" fill="rgba(15,23,42,0.92)" stroke="rgba(255,255,255,0.10)" filter="url(#shadow)"/><rect x="28" y="28" rx="14" ry="14" width="504" height="144" fill="rgba(255,255,255,0.06)" opacity="0.35"/><g transform="translate(42,40)"><path d="M52 0 L94 18 L94 66 C94 92 70 118 52 128 C34 118 10 92 10 66 V18 Z" fill="url(#g1)"/><rect x="43" y="36" width="18" height="34" rx="3" fill="white"/><rect x="36" y="43" width="34" height="18" rx="3" fill="white"/><path d="M-6,98 C14,98 22,98 32,98 L40,90 L48,108 L56,78 L62,98 L84,98 C100,98 110,98 128,98" stroke="white" stroke-width="2" fill="none"/></g><g transform="translate(170,88)"><text x="0" y="0" font-family="Inter, Segoe UI, Arial" font-size="36" font-weight="900" fill="white">HGY CareBoard</text><text x="0" y="26" font-family="Inter, Segoe UI, Arial" font-size="14" font-weight="600" fill="#c8d4e6" letter-spacing=".5">YAOUNDE GENERAL HOSPITAL</text><rect x="0" y="34" width="280" height="2" fill="url(#g1)" opacity=".7"/></g></svg>