<svg xmlns="http://www.w3.org/2000/svg" width="640" height="220" viewBox="0 0 640 220" role="img" aria-label="LifeView Central">
  <defs>
    <linearGradient id="mark" x1="0" y1="0" x2="1" y2="1">
      <stop stop-color="#05a6b8"/>
      <stop offset=".58" stop-color="#3867d6"/>
      <stop offset="1" stop-color="#18a66a"/>
    </linearGradient>
    <filter id="shadow">
      <feDropShadow dx="0" dy="16" stdDeviation="16" flood-color="#0f766e" flood-opacity=".2"/>
    </filter>
  </defs>
  <rect x="10" y="10" width="620" height="200" rx="28" fill="#f8feff" stroke="#cceff4" filter="url(#shadow)"/>
  <g transform="translate(42 42)">
    <rect width="136" height="136" rx="34" fill="url(#mark)"/>
    <path d="M68 24c-23 12-38 28-38 55 0 30 25 48 38 56 13-8 38-26 38-56 0-27-15-43-38-55z" fill="#fff" opacity=".96"/>
    <path d="M34 82h22l8-18 12 39 11-28h19" fill="none" stroke="#075e68" stroke-width="8" stroke-linecap="round" stroke-linejoin="round"/>
    <rect x="61" y="43" width="14" height="45" rx="4" fill="#05a6b8"/>
    <rect x="46" y="58" width="45" height="14" rx="4" fill="#05a6b8"/>
  </g>
  <text x="205" y="98" font-family="Inter, Segoe UI, Arial, sans-serif" font-size="44" font-weight="900" fill="#0f172a">LifeView Central</text>
  <text x="207" y="134" font-family="Inter, Segoe UI, Arial, sans-serif" font-size="17" font-weight="800" fill="#0f766e" letter-spacing=".4">HOSPITAL MONITORING</text>
  <text x="207" y="163" font-family="Inter, Segoe UI, Arial, sans-serif" font-size="15" fill="#475569">Patient visibility, alerts, reports, and care team coordination</text>
</svg>
