<svg xmlns="http://www.w3.org/2000/svg" width="640" height="220" viewBox="0 0 640 220"><defs><linearGradient id="g" x1="0" y1="0" x2="1" y2="1"><stop stop-color="#0ea5e9"/><stop offset=".55" stop-color="#14b8a6"/><stop offset="1" stop-color="#22c55e"/></linearGradient><filter id="s"><feDropShadow dx="0" dy="16" stdDeviation="16" flood-color="#0f766e" flood-opacity=".25"/></filter></defs><rect x="10" y="10" width="620" height="200" rx="28" fill="#f8feff" stroke="#cceff4" filter="url(#s)"/><g transform="translate(42 42)"><rect width="136" height="136" rx="34" fill="url(#g)"/><path d="M68 24c-23 12-38 28-38 55 0 30 25 48 38 56 13-8 38-26 38-56 0-27-15-43-38-55z" fill="#fff" opacity=".95"/><path d="M34 82h22l8-18 12 39 11-28h19" fill="none" stroke="#0f766e" stroke-width="8" stroke-linecap="round" stroke-linejoin="round"/><rect x="61" y="43" width="14" height="45" rx="4" fill="#0ea5e9"/><rect x="46" y="58" width="45" height="14" rx="4" fill="#0ea5e9"/></g><text x="205" y="98" font-family="Inter,Segoe UI,Arial" font-size="44" font-weight="900" fill="#0f172a">LifeView Central</text><text x="207" y="134" font-family="Inter,Segoe UI,Arial" font-size="17" font-weight="700" fill="#0f766e" letter-spacing=".4">REAL-TIME PATIENT VISIBILITY</text><text x="207" y="163" font-family="Inter,Segoe UI,Arial" font-size="15" fill="#475569">Hospital monitoring • device data • alerts • AI-assisted review</text></svg>
