<svg xmlns="http://www.w3.org/2000/svg" width="720" height="260" viewBox="0 0 720 260"><defs><linearGradient id="panel" x1="0" y1="0" x2="1" y2="1"><stop stop-color="#08111f"/><stop offset=".55" stop-color="#0f2441"/><stop offset="1" stop-color="#0b4f63"/></linearGradient><linearGradient id="pulse" x1="0" y1="0" x2="1" y2="1"><stop stop-color="#22d3ee"/><stop offset=".45" stop-color="#38bdf8"/><stop offset="1" stop-color="#34d399"/></linearGradient><filter id="shadow"><feDropShadow dx="0" dy="18" stdDeviation="18" flood-color="#020617" flood-opacity=".42"/></filter><filter id="glow"><feGaussianBlur stdDeviation="4" result="b"/><feMerge><feMergeNode in="b"/><feMergeNode in="SourceGraphic"/></feMerge></filter></defs><rect x="12" y="12" width="696" height="236" rx="34" fill="url(#panel)" stroke="rgba(255,255,255,.14)" filter="url(#shadow)"/><circle cx="95" cy="98" r="54" fill="rgba(34,211,238,.12)" stroke="rgba(103,232,249,.42)"/><path d="M95 45c-29 13-48 35-48 68 0 39 32 66 48 78 16-12 48-39 48-78 0-33-19-55-48-68z" fill="url(#pulse)"/><path d="M53 127h28l9-24 16 55 13-39h31" fill="none" stroke="#fff" stroke-width="7" stroke-linecap="round" stroke-linejoin="round" filter="url(#glow)"/><rect x="88" y="73" width="15" height="48" rx="4" fill="#fff"/><rect x="72" y="89" width="48" height="15" rx="4" fill="#fff"/><text x="178" y="101" font-family="Inter,Segoe UI,Arial" font-size="48" font-weight="950" fill="#ffffff">LifeView Central</text><path d="M181 122 H612" stroke="url(#pulse)" stroke-width="4" stroke-linecap="round"/><g transform="translate(180 146)"><rect width="144" height="32" rx="16" fill="rgba(34,211,238,.14)" stroke="rgba(103,232,249,.35)"/><text x="18" y="22" font-family="Inter,Segoe UI,Arial" font-size="13" font-weight="800" fill="#a5f3fc">LIVE VITALS</text></g><g transform="translate(338 146)"><rect width="132" height="32" rx="16" fill="rgba(52,211,153,.13)" stroke="rgba(110,231,183,.35)"/><text x="18" y="22" font-family="Inter,Segoe UI,Arial" font-size="13" font-weight="800" fill="#bbf7d0">ALERTS</text></g><g transform="translate(484 146)"><rect width="158" height="32" rx="16" fill="rgba(96,165,250,.13)" stroke="rgba(147,197,253,.34)"/><text x="18" y="22" font-family="Inter,Segoe UI,Arial" font-size="13" font-weight="800" fill="#bfdbfe">CARE TEAMS</text></g><path d="M180 203 C230 184 275 222 328 199 S436 181 492 204 590 214 642 190" fill="none" stroke="rgba(34,211,238,.46)" stroke-width="3" stroke-linecap="round"/><circle cx="328" cy="199" r="5" fill="#34d399"/><circle cx="492" cy="204" r="5" fill="#22d3ee"/><circle cx="642" cy="190" r="5" fill="#60a5fa"/></svg>
